<svg width="142.8000030517578px" height="119.20000610351562px" xmlns="http://www.w3.org/2000/svg" viewBox="178.5999984741211 15.39999694824219 142.8000030517578 119.20000610351562" style="background: none;" preserveAspectRatio="xMidYMid"><defs><linearGradient id="editing-rainbow-gradient" x1="0" x2="1" y1="0.5" y2="0.5" gradientUnits="objectBoundingBox"><stop offset="0.00" stop-color="#f06800"></stop><stop offset="0.17" stop-color="#e3aa10"></stop><stop offset="0.34" stop-color="#02c7ab"></stop><stop offset="0.51" stop-color="#4996a2"></stop><stop offset="0.68" stop-color="#b43a9d"></stop><stop offset="0.85" stop-color="#ae7c6c"></stop><stop offset="1.00" stop-color="#f9ba32"></stop></linearGradient><filter id="editing-rainbow" x="-100%" y="-100%" width="300%" height="300%"><feMorphology operator="dilate" radius="1,2" in="SourceGraphic" result="dilate"></feMorphology><feColorMatrix in="dilate" result="color" type="matrix" values="0.7 0 0 0 0  0 0.7 0 0 0  0 0 0.7 0 0  0 0 0 1 0"></feColorMatrix><feOffset dy="2" result="offset"></feOffset><feGaussianBlur stdDeviation="3"></feGaussianBlur><feOffset dy="3"></feOffset><feColorMatrix result="blur" type="matrix" values="0.7 0 0 0 0  0 0.7 0 0 0  0 0 0.7 0 0  0 0 0 1 0"></feColorMatrix><feMerge><feMergeNode in="blur"></feMergeNode><feMergeNode in="offset"></feMergeNode><feMergeNode in="SourceGraphic"></feMergeNode></feMerge></filter></defs><g filter="url(#editing-rainbow)"><g transform="translate(205.3808647096157, 94.3346118927002)"><path d="M8.47-27.69L0.15-27.04L0.95-29.63L0.95-29.63Q1.00-29.68 1.72-29.76L1.72-29.76L1.72-29.76Q2.44-29.83 3.64-29.96L3.64-29.96L3.64-29.96Q4.83-30.08 6.33-30.23L6.33-30.23L6.33-30.23Q7.82-30.38 9.39-30.53L9.39-30.53L9.39-30.53Q10.96-30.68 12.48-30.83L12.48-30.83L12.48-30.83Q14.00-30.98 15.29-31.13L15.29-31.13L15.29-31.13Q15.29-31.13 15.74-31.13L15.74-31.13L15.74-31.13Q16.19-31.13 16.73-31.13L16.73-31.13L16.73-31.13Q17.28-31.13 17.78-31.13L17.78-31.13L17.78-31.13Q18.28-31.13 18.43-31.13L18.43-31.13L18.43-31.13Q19.62-31.13 20.07-30.68L20.07-30.68L20.07-30.68Q20.52-30.23 20.52-28.74L20.52-28.74L11.46-27.69L11.46-27.69Q11.36-24.55 11.55-21.12L11.55-21.12L11.55-21.12Q11.75-17.68 12.05-14.17L12.05-14.17L12.05-14.17Q12.35-10.66 12.63-7.22L12.63-7.22L12.63-7.22Q12.90-3.79 12.90-0.65L12.90-0.65L12.90-0.65Q12.90-0.20 12.63-0.02L12.63-0.02L12.63-0.02Q12.35 0.15 11.98 0.20L11.98 0.20L11.98 0.20Q11.60 0.25 11.21 0.17L11.21 0.17L11.21 0.17Q10.81 0.10 10.51 0L10.51 0L10.51 0Q10.36-0.65 10.21-2.24L10.21-2.24L10.21-2.24Q10.06-3.83 9.91-5.98L9.91-5.98L9.91-5.98Q9.76-8.12 9.61-10.61L9.61-10.61L9.61-10.61Q9.46-13.10 9.31-15.59L9.31-15.59L9.31-15.59Q9.16-18.08 9.01-20.35L9.01-20.35L9.01-20.35Q8.87-22.61 8.77-24.33L8.77-24.33L8.77-24.33Q8.67-26.05 8.59-26.99L8.59-26.99L8.59-26.99Q8.52-27.94 8.47-27.69L8.47-27.69ZM20.22-10.01L20.22-10.01L20.22-10.01Q20.22-13.60 20.25-16.78L20.25-16.78L20.25-16.78Q20.27-19.97 20.40-23.08L20.40-23.08L20.40-23.08Q20.52-26.20 20.72-29.41L20.72-29.41L20.72-29.41Q20.92-32.62 21.27-36.36L21.27-36.36L22.71-36.36L22.71-17.23L33.57-17.23L33.57-17.23Q33.52-19.03 33.52-21.09L33.52-21.09L33.52-21.09Q33.52-23.16 33.47-25.28L33.47-25.28L33.47-25.28Q33.42-27.39 33.39-29.41L33.39-29.41L33.39-29.41Q33.37-31.43 33.37-33.22L33.37-33.22L33.37-33.22Q33.37-35.01 33.37-36.36L33.37-36.36L33.37-36.36Q33.37-37.70 33.37-38.45L33.37-38.45L33.37-38.45Q33.52-38.45 33.89-38.37L33.89-38.37L33.89-38.37Q34.27-38.30 34.64-38.18L34.64-38.18L34.64-38.18Q35.01-38.05 35.31-37.83L35.31-37.83L35.31-37.83Q35.61-37.60 35.61-37.25L35.61-37.25L35.61 0.05L34.07-0.25L34.07-0.25Q33.97-0.25 33.92-0.90L33.92-0.90L33.92-0.90Q33.87-1.54 33.84-2.52L33.84-2.52L33.84-2.52Q33.82-3.49 33.79-4.76L33.79-4.76L33.79-4.76Q33.77-6.03 33.74-7.25L33.74-7.25L33.74-7.25Q33.72-8.47 33.69-9.56L33.69-9.56L33.69-9.56Q33.67-10.66 33.67-11.41L33.67-11.41L33.67-11.41Q33.67-12.10 33.67-13.30L33.67-13.30L33.67-13.30Q33.67-14.49 33.62-16.04L33.62-16.04L22.71-14.09L22.61 0.10L20.22 0.10L20.22 0.10Q20.22 0.05 20.22-0.60L20.22-0.60L20.22-0.60Q20.22-1.25 20.22-2.22L20.22-2.22L20.22-2.22Q20.22-3.19 20.22-4.36L20.22-4.36L20.22-4.36Q20.22-5.53 20.22-6.62L20.22-6.62L20.22-6.62Q20.22-7.72 20.22-8.62L20.22-8.62L20.22-8.62Q20.22-9.51 20.22-10.01ZM39.05-34.42L39.05-35.01L39.05-35.01Q39.05-35.61 39.47-35.98L39.47-35.98L39.47-35.98Q39.89-36.36 40.49-36.36L40.49-36.36L40.49-36.36Q40.54-36.36 40.74-36.36L40.74-36.36L40.74-36.36Q40.94-36.36 40.99-36.36L40.99-36.36L40.99-36.36Q41.24-32.17 41.44-28.41L41.44-28.41L41.44-28.41Q41.64-24.65 41.76-21.02L41.76-21.02L41.76-21.02Q41.89-17.38 41.94-13.77L41.94-13.77L41.94-13.77Q41.99-10.16 41.99-6.23L41.99-6.23L41.99-6.23Q41.99-5.68 42.06-4.73L42.06-4.73L42.06-4.73Q42.13-3.79 42.21-2.89L42.21-2.89L42.21-2.89Q42.28-1.99 42.36-1.27L42.36-1.27L42.36-1.27Q42.43-0.55 42.43-0.50L42.43-0.50L40.29-0.10L40.29-0.10Q40.19-2.14 40.09-4.81L40.09-4.81L40.09-4.81Q39.99-7.47 39.92-10.48L39.92-10.48L39.92-10.48Q39.84-13.50 39.77-16.71L39.77-16.71L39.77-16.71Q39.69-19.92 39.57-23.06L39.57-23.06L39.57-23.06Q39.45-26.20 39.32-29.11L39.32-29.11L39.32-29.11Q39.20-32.02 39.05-34.42L39.05-34.42ZM66.04 0L46.92-29.63L46.92-29.63Q46.92-29.48 46.89-28.99L46.89-28.99L46.89-28.99Q46.87-28.49 46.87-27.97L46.87-27.97L46.87-27.97Q46.87-27.44 46.87-26.97L46.87-26.97L46.87-26.97Q46.87-26.50 46.87-26.35L46.87-26.35L46.87-26.35Q46.87-23.11 47.02-19.87L47.02-19.87L47.02-19.87Q47.17-16.63 47.36-13.37L47.36-13.37L47.36-13.37Q47.56-10.11 47.71-6.82L47.71-6.82L47.71-6.82Q47.86-3.54 47.86-0.25L47.86-0.25L46.07-0.35L46.07-0.35Q46.02-1.29 45.90-2.99L45.90-2.99L45.90-2.99Q45.77-4.68 45.60-6.90L45.60-6.90L45.60-6.90Q45.42-9.11 45.22-11.65L45.22-11.65L45.22-11.65Q45.02-14.19 44.80-16.81L44.80-16.81L44.80-16.81Q44.58-19.42 44.43-21.96L44.43-21.96L44.43-21.96Q44.28-24.50 44.15-26.67L44.15-26.67L44.15-26.67Q44.03-28.84 43.98-30.51L43.98-30.51L43.98-30.51Q43.93-32.17 43.98-33.07L43.98-33.07L43.98-33.07Q43.98-33.67 44.43-34.07L44.43-34.07L44.43-34.07Q44.87-34.46 45.47-34.46L45.47-34.46L45.47-34.46Q46.07-34.46 46.84-34.19L46.84-34.19L46.84-34.19Q47.61-33.92 47.86-33.47L47.86-33.47L65.79-4.53L65.79-4.53Q65.79-6.82 65.67-9.46L65.67-9.46L65.67-9.46Q65.54-12.10 65.44-14.89L65.44-14.89L65.44-14.89Q65.34-17.68 65.32-20.49L65.32-20.49L65.32-20.49Q65.29-23.31 65.42-25.97L65.42-25.97L65.42-25.97Q65.54-28.64 65.92-31.03L65.92-31.03L65.92-31.03Q66.29-33.42 66.99-35.36L66.99-35.36L66.99-35.36Q67.68-35.61 68.08-35.64L68.08-35.64L68.08-35.64Q68.48-35.66 68.68-35.61L68.68-35.61L68.68-35.61Q68.88-35.56 68.90-35.36L68.90-35.36L68.90-35.36Q68.93-35.16 68.93-34.96L68.93-34.96L68.93-34.96Q68.93-34.86 68.93-34.66L68.93-34.66L68.93-34.66Q68.93-34.46 68.93-34.42L68.93-34.42L68.93-34.42Q68.83-34.12 68.71-33.32L68.71-33.32L68.71-33.32Q68.58-32.52 68.38-30.95L68.38-30.95L68.38-30.95Q68.18-29.38 68.03-26.89L68.03-26.89L68.03-26.89Q67.88-24.40 67.73-20.72L67.73-20.72L67.73-20.72Q67.58-17.03 67.51-11.95L67.51-11.95L67.51-11.95Q67.44-6.87 67.49-0.10L67.49-0.10L66.04 0ZM78.84-31.03L78.84-31.03L78.84-31.03Q80.68-31.03 82.05-29.96L82.05-29.96L82.05-29.96Q83.42-28.89 84.44-27.09L84.44-27.09L84.44-27.09Q85.46-25.30 86.16-22.96L86.16-22.96L86.16-22.96Q86.86-20.62 87.31-18.05L87.31-18.05L87.31-18.05Q87.76-15.49 88.00-12.87L88.00-12.87L88.00-12.87Q88.25-10.26 88.35-7.97L88.35-7.97L88.35-7.97Q88.45-5.68 88.48-3.83L88.48-3.83L88.48-3.83Q88.50-1.99 88.50-0.95L88.50-0.95L87.31-0.95L85.42-11.46L85.42-11.46Q85.17-11.70 84.29-11.75L84.29-11.75L84.29-11.75Q83.42-11.80 82.25-11.70L82.25-11.70L82.25-11.70Q81.08-11.60 79.71-11.43L79.71-11.43L79.71-11.43Q78.34-11.26 77.12-11.18L77.12-11.18L77.12-11.18Q75.90-11.11 74.91-11.13L74.91-11.13L74.91-11.13Q73.91-11.16 73.46-11.46L73.46-11.46L73.46-0.95L70.92-0.95L70.92-0.95Q70.92-1.10 70.95-1.52L70.95-1.52L70.95-1.52Q70.97-1.94 70.97-2.39L70.97-2.39L70.97-2.39Q70.97-2.84 71.02-3.24L71.02-3.24L71.02-3.24Q71.07-3.64 71.07-3.79L71.07-3.79L71.07-3.79Q71.37-6.67 71.54-9.64L71.54-9.64L71.54-9.64Q71.72-12.60 71.97-15.39L71.97-15.39L71.97-15.39Q72.22-18.18 72.64-20.72L72.64-20.72L72.64-20.72Q73.06-23.26 73.86-25.33L73.86-25.33L73.86-25.33Q74.66-27.39 75.85-28.86L75.85-28.86L75.85-28.86Q77.05-30.33 78.84-31.03ZM79.64-28.74L79.64-28.74L79.64-28.74Q78.34-28.74 77.47-27.82L77.47-27.82L77.47-27.82Q76.60-26.89 76.05-25.43L76.05-25.43L76.05-25.43Q75.50-23.96 75.21-22.16L75.21-22.16L75.21-22.16Q74.91-20.37 74.81-18.65L74.81-18.65L74.81-18.65Q74.71-16.93 74.68-15.46L74.68-15.46L74.68-15.46Q74.66-14.00 74.66-13.20L74.66-13.20L74.66-13.20Q77.10-13.20 79.64-13.57L79.64-13.57L79.64-13.57Q82.18-13.95 84.42-14.34L84.42-14.34L84.42-14.34Q84.47-14.54 84.49-14.99L84.49-14.99L84.49-14.99Q84.52-15.44 84.54-15.99L84.54-15.99L84.54-15.99Q84.57-16.54 84.59-17.03L84.59-17.03L84.59-17.03Q84.62-17.53 84.62-17.68L84.62-17.68L84.62-17.68Q84.62-19.32 84.44-20.82L84.44-20.82L84.44-20.82Q84.27-22.31 83.75-23.73L83.75-23.73L83.75-23.73Q83.22-25.15 82.25-26.40L82.25-26.40L82.25-26.40Q81.28-27.64 79.64-28.74Z" fill="url(#editing-rainbow-gradient)"></path></g></g><style>text {
  font-size: 64px;
  font-family: Arial Black;
  dominant-baseline: central;
  text-anchor: middle;
}</style></svg>